<svg xmlns="http://www.w3.org/2000/svg" viewbox="0 0 512 512" width="512" height="512"><defs></defs><g transform="matrix(1, 0, 0, 1, 0, 0.00000000000002842170943040401)">
<rect class="artboard-bg" fill="#FFFFFFFF" x="0" y="0" width="512" height="512"/>
<g class="artboard" transform="matrix(1, 0, 0, 1, 0, 0)">
	<path class="vector-data" d="M0.000000,512.000000C0.000000,512.000000 512.000000,512.000000 512.000000,512.000000 C512.000000,512.000000 512.000000,0.000000 512.000000,0.000000 C512.000000,0.000000 0.000000,0.000000 0.000000,0.000000 C0.000000,0.000000 0.000000,512.000000 0.000000,512.000000 ZM0.000000,512.000000C0.000000,512.000000 512.000000,512.000000 512.000000,512.000000 C512.000000,512.000000 512.000000,0.000000 512.000000,0.000000 C512.000000,0.000000 0.000000,0.000000 0.000000,0.000000 C0.000000,0.000000 0.000000,512.000000 0.000000,512.000000 Z" fill="#FFFFFF" stroke="#000000" stroke-width="32" stroke-dasharray="none" stroke-dashoffset="0" stroke-linecap="butt" stroke-linejoin="miter" stroke-miterlimit="4" />
	<path class="vector-data" d="M224.000000,80.000000C224.000000,80.000000 288.000000,80.000000 288.000000,80.000000 C288.000000,80.000000 288.000000,336.000000 288.000000,336.000000 C288.000000,336.000000 224.000000,336.000000 224.000000,336.000000 C224.000000,336.000000 224.000000,80.000000 224.000000,80.000000 ZM224.000000,80.000000C224.000000,80.000000 288.000000,80.000000 288.000000,80.000000 C288.000000,80.000000 288.000000,336.000000 288.000000,336.000000 C288.000000,336.000000 224.000000,336.000000 224.000000,336.000000 C224.000000,336.000000 224.000000,80.000000 224.000000,80.000000 Z" fill="#000000" stroke="#000000" stroke-width="0" stroke-dasharray="none" stroke-dashoffset="0" stroke-linecap="butt" stroke-linejoin="miter" stroke-miterlimit="4" />
	<path class="vector-data" d="M224.000000,368.000000C224.000000,368.000000 288.000000,368.000000 288.000000,368.000000 C288.000000,368.000000 288.000000,432.000000 288.000000,432.000000 C288.000000,432.000000 224.000000,432.000000 224.000000,432.000000 C224.000000,432.000000 224.000000,368.000000 224.000000,368.000000 ZM224.000000,368.000000C224.000000,368.000000 288.000000,368.000000 288.000000,368.000000 C288.000000,368.000000 288.000000,432.000000 288.000000,432.000000 C288.000000,432.000000 224.000000,432.000000 224.000000,432.000000 C224.000000,432.000000 224.000000,368.000000 224.000000,368.000000 Z" fill="#000000" stroke="#000000" stroke-width="0" stroke-dasharray="none" stroke-dashoffset="0" stroke-linecap="butt" stroke-linejoin="miter" stroke-miterlimit="4" />
	<path class="vector-data" d="M336.000000,80.000000C336.000000,80.000000 368.000000,80.000000 368.000000,80.000000 C368.000000,80.000000 368.000000,176.000000 368.000000,176.000000 C368.000000,176.000000 336.000000,176.000000 336.000000,176.000000 C336.000000,176.000000 336.000000,80.000000 336.000000,80.000000 ZM336.000000,80.000000C336.000000,80.000000 368.000000,80.000000 368.000000,80.000000 C368.000000,80.000000 368.000000,176.000000 368.000000,176.000000 C368.000000,176.000000 336.000000,176.000000 336.000000,176.000000 C336.000000,176.000000 336.000000,80.000000 336.000000,80.000000 Z" fill="#000000" stroke="#000000" stroke-width="0" stroke-dasharray="none" stroke-dashoffset="0" stroke-linecap="butt" stroke-linejoin="miter" stroke-miterlimit="4" />
	<path class="vector-data" d="M400.000000,80.000000C400.000000,80.000000 432.000000,80.000000 432.000000,80.000000 C432.000000,80.000000 432.000000,176.000000 432.000000,176.000000 C432.000000,176.000000 400.000000,176.000000 400.000000,176.000000 C400.000000,176.000000 400.000000,80.000000 400.000000,80.000000 ZM400.000000,80.000000C400.000000,80.000000 432.000000,80.000000 432.000000,80.000000 C432.000000,80.000000 432.000000,176.000000 432.000000,176.000000 C432.000000,176.000000 400.000000,176.000000 400.000000,176.000000 C400.000000,176.000000 400.000000,80.000000 400.000000,80.000000 Z" fill="#000000" stroke="#000000" stroke-width="0" stroke-dasharray="none" stroke-dashoffset="0" stroke-linecap="butt" stroke-linejoin="miter" stroke-miterlimit="4" />
</g></g></svg>